<?xml version="1.0" encoding="UTF-8"?>
<svg xmlns="http://www.w3.org/2000/svg" xmlns:xlink="http://www.w3.org/1999/xlink" width="854" height="480" viewBox="0 0 854 480">
<defs>
<g>
<g id="glyph-0-0">
<path d="M 1.640625 0.046875 C 1.328125 0.046875 1.066406 -0.0195312 0.859375 -0.15625 C 0.648438 -0.289062 0.492188 -0.476562 0.390625 -0.71875 C 0.296875 -0.96875 0.25 -1.257812 0.25 -1.59375 C 0.25 -1.914062 0.296875 -2.195312 0.390625 -2.4375 C 0.492188 -2.6875 0.648438 -2.878906 0.859375 -3.015625 C 1.078125 -3.148438 1.34375 -3.21875 1.65625 -3.21875 C 1.945312 -3.21875 2.195312 -3.148438 2.40625 -3.015625 C 2.613281 -2.878906 2.769531 -2.6875 2.875 -2.4375 C 2.988281 -2.195312 3.046875 -1.914062 3.046875 -1.59375 C 3.046875 -1.257812 2.988281 -0.96875 2.875 -0.71875 C 2.769531 -0.476562 2.613281 -0.289062 2.40625 -0.15625 C 2.195312 -0.0195312 1.941406 0.046875 1.640625 0.046875 Z M 1.640625 -0.1875 C 1.972656 -0.1875 2.207031 -0.3125 2.34375 -0.5625 C 2.476562 -0.8125 2.546875 -1.15625 2.546875 -1.59375 C 2.546875 -2.03125 2.476562 -2.367188 2.34375 -2.609375 C 2.207031 -2.859375 1.976562 -2.984375 1.65625 -2.984375 C 1.320312 -2.984375 1.082031 -2.859375 0.9375 -2.609375 C 0.800781 -2.367188 0.734375 -2.03125 0.734375 -1.59375 C 0.734375 -1.15625 0.800781 -0.8125 0.9375 -0.5625 C 1.082031 -0.3125 1.316406 -0.1875 1.640625 -0.1875 Z "/>
</g>
<g id="glyph-0-1">
<path d="M 1.21875 0.046875 C 0.976562 0.046875 0.796875 -0.0195312 0.671875 -0.15625 C 0.546875 -0.300781 0.484375 -0.523438 0.484375 -0.828125 L 0.484375 -1.890625 C 0.484375 -2.015625 0.445312 -2.09375 0.375 -2.125 C 0.300781 -2.164062 0.210938 -2.1875 0.109375 -2.1875 L 0.109375 -2.375 L 0.890625 -2.375 L 0.890625 -0.84375 C 0.890625 -0.65625 0.921875 -0.503906 0.984375 -0.390625 C 1.054688 -0.285156 1.179688 -0.234375 1.359375 -0.234375 C 1.554688 -0.234375 1.695312 -0.300781 1.78125 -0.4375 C 1.875 -0.570312 1.921875 -0.742188 1.921875 -0.953125 L 1.921875 -1.875 C 1.921875 -2.007812 1.882812 -2.09375 1.8125 -2.125 C 1.738281 -2.164062 1.65625 -2.1875 1.5625 -2.1875 L 1.546875 -2.1875 L 1.546875 -2.375 L 2.34375 -2.375 L 2.34375 -0.484375 C 2.34375 -0.347656 2.378906 -0.265625 2.453125 -0.234375 C 2.523438 -0.203125 2.609375 -0.1875 2.703125 -0.1875 L 2.71875 -0.1875 L 2.71875 0 L 2.015625 0 L 1.953125 -0.359375 L 1.9375 -0.359375 C 1.84375 -0.191406 1.734375 -0.0820312 1.609375 -0.03125 C 1.484375 0.0195312 1.351562 0.046875 1.21875 0.046875 Z "/>
</g>
<g id="glyph-0-2">
<path d="M 1.0625 0.046875 C 0.84375 0.046875 0.679688 -0.00390625 0.578125 -0.109375 C 0.472656 -0.210938 0.421875 -0.390625 0.421875 -0.640625 L 0.421875 -2.125 L 0.078125 -2.125 L 0.078125 -2.296875 C 0.140625 -2.296875 0.203125 -2.304688 0.265625 -2.328125 C 0.328125 -2.359375 0.382812 -2.394531 0.4375 -2.4375 C 0.476562 -2.5 0.515625 -2.566406 0.546875 -2.640625 C 0.585938 -2.710938 0.617188 -2.804688 0.640625 -2.921875 L 0.84375 -2.921875 L 0.84375 -2.375 L 1.421875 -2.375 L 1.421875 -2.125 L 0.84375 -2.125 L 0.84375 -0.625 C 0.84375 -0.476562 0.875 -0.367188 0.9375 -0.296875 C 1 -0.222656 1.078125 -0.1875 1.171875 -0.1875 C 1.222656 -0.1875 1.269531 -0.1875 1.3125 -0.1875 C 1.363281 -0.195312 1.410156 -0.207031 1.453125 -0.21875 L 1.453125 -0.03125 C 1.421875 -0.0078125 1.363281 0.00390625 1.28125 0.015625 C 1.207031 0.0351562 1.132812 0.046875 1.0625 0.046875 Z "/>
</g>
<g id="glyph-0-3">
<path d="M 0.078125 1.0625 L 0.078125 0.875 L 0.109375 0.875 C 0.210938 0.875 0.300781 0.851562 0.375 0.8125 C 0.445312 0.78125 0.484375 0.695312 0.484375 0.5625 L 0.484375 -1.890625 C 0.484375 -2.015625 0.445312 -2.09375 0.375 -2.125 C 0.300781 -2.164062 0.210938 -2.1875 0.109375 -2.1875 L 0.0625 -2.1875 L 0.0625 -2.375 L 0.828125 -2.375 L 0.875 -1.984375 L 0.890625 -1.984375 C 0.960938 -2.117188 1.050781 -2.222656 1.15625 -2.296875 C 1.257812 -2.378906 1.398438 -2.421875 1.578125 -2.421875 C 1.867188 -2.421875 2.09375 -2.320312 2.25 -2.125 C 2.40625 -1.925781 2.484375 -1.613281 2.484375 -1.1875 C 2.484375 -0.757812 2.40625 -0.445312 2.25 -0.25 C 2.09375 -0.0507812 1.867188 0.046875 1.578125 0.046875 C 1.398438 0.046875 1.257812 0.0078125 1.15625 -0.0625 C 1.050781 -0.132812 0.960938 -0.226562 0.890625 -0.34375 L 0.875 -0.34375 C 0.882812 -0.257812 0.890625 -0.164062 0.890625 -0.0625 C 0.890625 0.03125 0.890625 0.101562 0.890625 0.15625 L 0.890625 0.578125 C 0.890625 0.710938 0.925781 0.796875 1 0.828125 C 1.070312 0.859375 1.160156 0.875 1.265625 0.875 L 1.28125 0.875 L 1.28125 1.0625 Z M 1.5 -0.234375 C 1.695312 -0.234375 1.835938 -0.316406 1.921875 -0.484375 C 2.003906 -0.648438 2.046875 -0.890625 2.046875 -1.203125 C 2.046875 -1.515625 2.003906 -1.75 1.921875 -1.90625 C 1.835938 -2.0625 1.695312 -2.140625 1.5 -2.140625 C 1.269531 -2.140625 1.109375 -2.0625 1.015625 -1.90625 C 0.929688 -1.75 0.890625 -1.507812 0.890625 -1.1875 C 0.890625 -0.882812 0.929688 -0.648438 1.015625 -0.484375 C 1.109375 -0.316406 1.269531 -0.234375 1.5 -0.234375 Z "/>
</g>
<g id="glyph-0-4">
</g>
<g id="glyph-0-5">
<path d="M 0.71875 -2.828125 C 0.644531 -2.828125 0.582031 -2.847656 0.53125 -2.890625 C 0.488281 -2.929688 0.46875 -3 0.46875 -3.09375 C 0.46875 -3.195312 0.488281 -3.269531 0.53125 -3.3125 C 0.582031 -3.351562 0.644531 -3.375 0.71875 -3.375 C 0.78125 -3.375 0.835938 -3.351562 0.890625 -3.3125 C 0.941406 -3.269531 0.96875 -3.195312 0.96875 -3.09375 C 0.96875 -3 0.941406 -2.929688 0.890625 -2.890625 C 0.835938 -2.847656 0.78125 -2.828125 0.71875 -2.828125 Z M 0.109375 0 L 0.109375 -0.1875 L 0.15625 -0.1875 C 0.257812 -0.1875 0.347656 -0.203125 0.421875 -0.234375 C 0.492188 -0.265625 0.53125 -0.347656 0.53125 -0.484375 L 0.53125 -1.890625 C 0.53125 -2.015625 0.492188 -2.09375 0.421875 -2.125 C 0.347656 -2.164062 0.257812 -2.1875 0.15625 -2.1875 L 0.140625 -2.1875 L 0.140625 -2.375 L 0.9375 -2.375 L 0.9375 -0.5 C 0.9375 -0.363281 0.972656 -0.273438 1.046875 -0.234375 C 1.117188 -0.203125 1.203125 -0.1875 1.296875 -0.1875 L 1.359375 -0.1875 L 1.359375 0 Z "/>
</g>
<g id="glyph-0-6">
<path d="M 0.125 0 L 0.125 -0.1875 L 0.1875 -0.1875 C 0.28125 -0.1875 0.359375 -0.203125 0.421875 -0.234375 C 0.492188 -0.273438 0.53125 -0.363281 0.53125 -0.5 L 0.53125 -1.890625 C 0.53125 -2.015625 0.492188 -2.09375 0.421875 -2.125 C 0.359375 -2.164062 0.28125 -2.1875 0.1875 -2.1875 L 0.171875 -2.1875 L 0.171875 -2.375 L 0.859375 -2.375 L 0.921875 -2.015625 L 0.9375 -2.015625 C 1.03125 -2.179688 1.128906 -2.289062 1.234375 -2.34375 C 1.347656 -2.394531 1.472656 -2.421875 1.609375 -2.421875 C 1.753906 -2.421875 1.882812 -2.390625 2 -2.328125 C 2.113281 -2.265625 2.203125 -2.160156 2.265625 -2.015625 L 2.296875 -2.015625 C 2.378906 -2.179688 2.476562 -2.289062 2.59375 -2.34375 C 2.71875 -2.394531 2.847656 -2.421875 2.984375 -2.421875 C 3.210938 -2.421875 3.390625 -2.351562 3.515625 -2.21875 C 3.648438 -2.082031 3.71875 -1.859375 3.71875 -1.546875 L 3.71875 -0.5 C 3.71875 -0.363281 3.75 -0.273438 3.8125 -0.234375 C 3.875 -0.203125 3.957031 -0.1875 4.0625 -0.1875 L 4.0625 0 L 3.296875 0 L 3.296875 -1.53125 C 3.296875 -1.71875 3.257812 -1.863281 3.1875 -1.96875 C 3.125 -2.082031 3.003906 -2.140625 2.828125 -2.140625 C 2.710938 -2.140625 2.617188 -2.109375 2.546875 -2.046875 C 2.472656 -1.984375 2.421875 -1.898438 2.390625 -1.796875 C 2.359375 -1.703125 2.34375 -1.597656 2.34375 -1.484375 L 2.34375 -0.5 C 2.34375 -0.363281 2.375 -0.273438 2.4375 -0.234375 C 2.5 -0.203125 2.582031 -0.1875 2.6875 -0.1875 L 2.6875 0 L 1.921875 0 L 1.921875 -1.53125 C 1.921875 -1.71875 1.882812 -1.863281 1.8125 -1.96875 C 1.75 -2.082031 1.628906 -2.140625 1.453125 -2.140625 C 1.328125 -2.140625 1.222656 -2.101562 1.140625 -2.03125 C 1.066406 -1.96875 1.015625 -1.878906 0.984375 -1.765625 C 0.953125 -1.660156 0.9375 -1.546875 0.9375 -1.421875 L 0.9375 -0.484375 C 0.9375 -0.347656 0.972656 -0.265625 1.046875 -0.234375 C 1.117188 -0.203125 1.203125 -0.1875 1.296875 -0.1875 L 1.3125 -0.1875 L 1.3125 0 Z "/>
</g>
<g id="glyph-0-7">
<path d="M 1.03125 1.0625 C 0.71875 1.0625 0.484375 1.003906 0.328125 0.890625 C 0.179688 0.773438 0.109375 0.617188 0.109375 0.421875 C 0.109375 0.242188 0.160156 0.109375 0.265625 0.015625 C 0.378906 -0.0664062 0.507812 -0.125 0.65625 -0.15625 C 0.59375 -0.175781 0.535156 -0.21875 0.484375 -0.28125 C 0.429688 -0.34375 0.40625 -0.421875 0.40625 -0.515625 C 0.40625 -0.597656 0.425781 -0.671875 0.46875 -0.734375 C 0.519531 -0.804688 0.597656 -0.875 0.703125 -0.9375 C 0.578125 -0.988281 0.476562 -1.070312 0.40625 -1.1875 C 0.332031 -1.3125 0.296875 -1.453125 0.296875 -1.609375 C 0.296875 -1.859375 0.363281 -2.054688 0.5 -2.203125 C 0.644531 -2.347656 0.859375 -2.421875 1.140625 -2.421875 C 1.242188 -2.421875 1.34375 -2.40625 1.4375 -2.375 C 1.53125 -2.34375 1.597656 -2.3125 1.640625 -2.28125 C 1.679688 -2.320312 1.738281 -2.367188 1.8125 -2.421875 C 1.882812 -2.484375 1.972656 -2.515625 2.078125 -2.515625 C 2.160156 -2.515625 2.222656 -2.488281 2.265625 -2.4375 C 2.304688 -2.394531 2.328125 -2.34375 2.328125 -2.28125 C 2.328125 -2.21875 2.304688 -2.160156 2.265625 -2.109375 C 2.234375 -2.066406 2.175781 -2.046875 2.09375 -2.046875 C 2.09375 -2.085938 2.082031 -2.125 2.0625 -2.15625 C 2.050781 -2.1875 2.015625 -2.203125 1.953125 -2.203125 C 1.878906 -2.203125 1.816406 -2.1875 1.765625 -2.15625 C 1.816406 -2.09375 1.859375 -2.019531 1.890625 -1.9375 C 1.921875 -1.851562 1.9375 -1.742188 1.9375 -1.609375 C 1.9375 -1.390625 1.867188 -1.207031 1.734375 -1.0625 C 1.609375 -0.925781 1.410156 -0.859375 1.140625 -0.859375 C 1.097656 -0.859375 1.050781 -0.859375 1 -0.859375 C 0.957031 -0.859375 0.925781 -0.863281 0.90625 -0.875 C 0.84375 -0.84375 0.789062 -0.804688 0.75 -0.765625 C 0.707031 -0.722656 0.6875 -0.664062 0.6875 -0.59375 C 0.6875 -0.539062 0.703125 -0.5 0.734375 -0.46875 C 0.773438 -0.4375 0.851562 -0.421875 0.96875 -0.421875 L 1.46875 -0.421875 C 1.726562 -0.421875 1.914062 -0.359375 2.03125 -0.234375 C 2.144531 -0.109375 2.203125 0.046875 2.203125 0.234375 C 2.203125 0.484375 2.101562 0.679688 1.90625 0.828125 C 1.71875 0.984375 1.425781 1.0625 1.03125 1.0625 Z M 1.125 -1.0625 C 1.269531 -1.0625 1.367188 -1.101562 1.421875 -1.1875 C 1.484375 -1.28125 1.515625 -1.425781 1.515625 -1.625 C 1.515625 -1.820312 1.484375 -1.96875 1.421875 -2.0625 C 1.359375 -2.15625 1.257812 -2.203125 1.125 -2.203125 C 0.976562 -2.203125 0.875 -2.148438 0.8125 -2.046875 C 0.75 -1.953125 0.71875 -1.804688 0.71875 -1.609375 C 0.71875 -1.421875 0.75 -1.28125 0.8125 -1.1875 C 0.875 -1.101562 0.976562 -1.0625 1.125 -1.0625 Z M 1.03125 0.84375 C 1.25 0.84375 1.414062 0.816406 1.53125 0.765625 C 1.644531 0.722656 1.722656 0.660156 1.765625 0.578125 C 1.816406 0.503906 1.84375 0.414062 1.84375 0.3125 C 1.84375 0.175781 1.800781 0.0820312 1.71875 0.03125 C 1.644531 -0.0078125 1.535156 -0.03125 1.390625 -0.03125 L 0.953125 -0.03125 C 0.867188 -0.03125 0.789062 -0.0195312 0.71875 0 C 0.644531 0.0195312 0.582031 0.0625 0.53125 0.125 C 0.488281 0.1875 0.46875 0.273438 0.46875 0.390625 C 0.46875 0.472656 0.484375 0.550781 0.515625 0.625 C 0.546875 0.695312 0.601562 0.75 0.6875 0.78125 C 0.769531 0.820312 0.882812 0.84375 1.03125 0.84375 Z "/>
</g>
</g>
</defs>
<g fill="rgb(86.666667%, 86.666667%, 86.666667%)" fill-opacity="1">
<use xlink:href="#glyph-0-0" x="30" y="24.750977"/>
<use xlink:href="#glyph-0-1" x="33" y="24.750977"/>
<use xlink:href="#glyph-0-2" x="36" y="24.750977"/>
<use xlink:href="#glyph-0-3" x="38" y="24.750977"/>
<use xlink:href="#glyph-0-1" x="41" y="24.750977"/>
<use xlink:href="#glyph-0-2" x="44" y="24.750977"/>
<use xlink:href="#glyph-0-4" x="46" y="24.750977"/>
</g>
<g fill="rgb(86.666667%, 86.666667%, 86.666667%)" fill-opacity="1">
<use xlink:href="#glyph-0-5" x="30" y="29.083008"/>
<use xlink:href="#glyph-0-6" x="31" y="29.083008"/>
<use xlink:href="#glyph-0-7" x="35" y="29.083008"/>
</g>
</svg>
